HIERARCHY
ROOT pelvis
{
  OFFSET 0 100 0
  CHANNELS 6 Xposition Yposition Zposition Zrotation Xrotation Yrotation
  JOINT pelvis_right_femur
  {
    OFFSET -10.78128 -3.44521 -0.5502486
    CHANNELS 3 Zrotation Xrotation Yrotation
    JOINT right_femur_tibia
    {
      OFFSET -0.8047443 -44.0398 -0.1307829
      CHANNELS 3 Zrotation Xrotation Yrotation
      JOINT right_tibia_foot
      {
        OFFSET 3.006224 -47.83518 -5
        CHANNELS 3 Zrotation Xrotation Yrotation
        End Site
        {
          OFFSET 0 -5 15
        }
      }
    }
  }
  JOINT pelvis_left_femur
  {
    OFFSET 10.78128 -3.44521 -0.5502486
    CHANNELS 3 Zrotation Xrotation Yrotation
    JOINT left_femur_tibia
    {
      OFFSET 0.8047443 -44.0398 -0.1307829
      CHANNELS 3 Zrotation Xrotation Yrotation
      JOINT left_tibia_foot
      {
        OFFSET -4.370144 -48.10324 -4.275266
        CHANNELS 3 Zrotation Xrotation Yrotation
        End Site
        {
          OFFSET 0 -5 15
        }
      }
    }
  }
  JOINT pelvis_spine1
  {
    OFFSET 0 6.468898 -3.129235
    CHANNELS 3 Zrotation Xrotation Yrotation
    JOINT spine1
    {
      OFFSET 0 23.15396 4.99043
      CHANNELS 3 Zrotation Xrotation Yrotation
      JOINT spine2
      {
        OFFSET 0 20.79997 -5.064912
        CHANNELS 3 Zrotation Xrotation Yrotation
        JOINT neck
        {
          OFFSET 0 14.38658 9.616178
          CHANNELS 3 Zrotation Xrotation Yrotation
          End Site
          {
            OFFSET 0 20 0
          }
        }
      }
      JOINT right_manubrium
      {
        OFFSET -5.722621 16.35077 3.967754
        CHANNELS 3 Zrotation Xrotation Yrotation
        JOINT right_clavicle
        {
          OFFSET -13.16364 1.694482 -4.693211
          CHANNELS 3 Zrotation Xrotation Yrotation
          JOINT right_humerus
          {
            OFFSET -28.5034 -0.3100689 -2.792744
            CHANNELS 3 Zrotation Xrotation Yrotation
            JOINT right_radius
            {
              OFFSET -25.15693 0.02248979 -1.271978
              CHANNELS 3 Zrotation Xrotation Yrotation
              End Site
              {
                OFFSET -15 0 0
              }
            }
          }
        }
      }
      JOINT left_manubrium
      {
        OFFSET 5.722621 16.35077 3.967754
        CHANNELS 3 Zrotation Xrotation Yrotation
        JOINT left_clavicle
        {
          OFFSET 13.16364 1.694482 -4.693211
          CHANNELS 3 Zrotation Xrotation Yrotation
          JOINT left_humerus
          {
            OFFSET 29.39168 -1.063119 -2.237045
            CHANNELS 3 Zrotation Xrotation Yrotation
            JOINT left_radius
            {
              OFFSET 24.59957 -0.9528479 0.9047498
              CHANNELS 3 Zrotation Xrotation Yrotation
              End Site
              {
                OFFSET 15 -0 -0
              }
            }
          }
        }
      }
    }
  }
}
MOTION
Frames: 9
Frame Time: 0.0416666666667
0 103.5113 0 0.5315705 -0.6261037 -0.008921675 4.456034 -18.87637 9.375159 -0 38.6249 -0 -7.111508 -14.32178 -2.079755 -7.154905 9.568323 -24.15185 -0 4.224847 -0 10.23592 -17.95883 28.65403 -3.785613 -2.79295 4.553696 2.566501 9.603686 -7.056336 1.544395 22.35482 7.100741 3.642702 -25.3469 9.782596 6.892144 -20.12125 11.74093 84.37942 36.24302 -17.21905 -0 0 16.25958 -5.945942 7.430406 4.233741 6.123632 -19.35275 -1.21189 -95.25117 26.49818 23.15485 0 0 -14.40899 9.895672 17.92625 2.946729
0.3846847 104.2674 1.092706 0.5736349 -0.8341623 -0.02897969 4.361873 -18.54567 9.344435 -0 39.13818 -0 -7.21534 -14.20426 -2.074814 -7.186681 9.548397 -24.21244 -0 4.382863 -0 10.36856 -17.82453 28.81776 -3.817668 -2.794298 4.541835 2.537198 9.659512 -7.001254 1.566577 22.43665 7.061965 3.63088 -25.29665 9.770302 6.84763 -20.1511 11.74424 84.40918 36.07871 -17.1069 -0 0 16.22569 -5.982101 7.345546 4.244406 6.08358 -19.31868 -1.263269 -95.25222 26.35528 23.1335 0 0 -14.14024 10.07632 17.99019 2.695437
0.7159134 104.8304 2.659609 0.3799849 -0.2754686 0.004063123 4.597482 -21.07024 8.245223 -0 34.62776 -0 -7.098693 -12.78307 -2.032287 -6.848046 10.65958 -22.85086 -0 4.147341 -0 9.404816 -18.72947 27.20438 -3.512533 -2.68524 4.333167 2.58888 9.613573 -7.341811 1.454375 22.11113 7.194087 3.670348 -25.27799 9.653202 6.255632 -19.82047 11.64343 85.3747 35.53044 -18.31927 -0 0 15.39967 -7.001355 7.702269 4.515005 6.484402 -20.15803 -1.541127 -93.88038 25.95122 21.47105 0 0 -16.46009 10.0449 17.36104 2.607862
1.010025 105.2438 4.590688 0.1577173 0.4842533 0.08781922 4.96159 -23.25965 7.685059 -0 30.88344 -0 -6.816904 -12.13064 -2.020004 -6.585573 11.39987 -21.88078 -0 3.982228 -0 8.54873 -19.43683 25.86006 -3.237455 -2.633752 4.239891 2.683709 9.479601 -7.649346 1.361611 21.73114 7.328522 3.704351 -25.38372 9.617689 5.961867 -19.55279 11.56859 85.90834 35.44839 -19.26307 -0 0 14.96515 -7.5169 8.083411 4.624055 6.803504 -20.71452 -1.586195 -93.02863 25.82819 20.49041 0 0 -18.3285 9.829136 16.82667 2.851968
1.267054 105.5132 6.931189 -0.08251412 1.197401 0.2190395 5.347809 -25.42663 7.096349 -0 27.15427 -0 -6.583173 -11.29731 -1.992543 -6.327306 12.19616 -20.83355 -0 4.234053 -0 7.704463 -20.00863 24.45559 -2.928486 -2.598421 4.145378 2.774231 9.381384 -7.943176 1.289039 21.34438 7.432056 3.724956 -25.49508 9.579689 5.594224 -19.27972 11.48756 86.51303 35.19248 -20.2062 -0 0 14.47122 -8.071273 8.441326 4.716801 7.117995 -21.28473 -1.650194 -92.10921 25.438 19.4347 0 0 -20.12329 9.862967 16.25932 2.768341
1.491954 105.6741 9.699535 -0.3600157 1.97212 0.3954706 5.799703 -27.50352 6.619653 -0 23.59619 -0 -6.362047 -10.477 -1.951785 -6.079446 12.92209 -19.8115 -0 4.893388 -0 6.787486 -20.43275 22.98155 -2.590072 -2.581528 4.073286 2.873169 9.277478 -8.230967 1.222797 20.92751 7.53342 3.748875 -25.65381 9.554988 5.276968 -18.99945 11.40826 87.07109 35.01319 -21.12374 -0 0 14.00638 -8.530153 8.816478 4.776044 7.401485 -21.80074 -1.662632 -91.3015 25.04011 18.54894 0 0 -21.79564 9.899834 15.68566 2.714531
1.688719 105.7638 12.93349 -0.6747671 2.755989 0.6159312 6.295986 -29.43879 6.186969 -0 20.23063 -0 -6.210742 -9.512867 -1.887368 -5.836209 13.59512 -18.7595 -0 6.155952 -0 5.750995 -20.66255 21.37969 -2.211867 -2.574364 4.008757 2.969067 9.192165 -8.508728 1.160738 20.49662 7.629516 3.779734 -25.8412 9.527014 4.977081 -18.70003 11.33 87.64759 34.84834 -22.04095 -0 0 13.49889 -8.962659 9.204155 4.828775 7.643881 -22.28999 -1.659309 -90.56361 24.59933 17.78472 0 0 -23.34716 9.952853 15.09859 2.667236
1.862599 105.8368 16.67584 -1.028469 3.52213 0.8781682 6.830034 -31.12943 5.794715 -0 17.16896 -0 -6.167068 -8.353568 -1.794113 -5.59576 14.17519 -17.67272 -0 8.220191 -0 4.546576 -20.63215 19.62303 -1.789272 -2.570419 3.949686 3.055163 9.135931 -8.770216 1.09951 20.06418 7.721896 3.823193 -26.04977 9.486721 4.708169 -18.37376 11.25592 88.25428 34.71818 -22.95803 -0 0 12.92196 -9.376782 9.609023 4.887452 7.822446 -22.74538 -1.648305 -89.92071 24.16352 17.18287 0 0 -24.73597 9.967554 14.5061 2.704032
2.019725 105.9653 20.97298 -1.41264 4.19918 1.174492 7.378542 -32.41313 5.419774 -0 14.56598 -0 -6.285913 -6.925438 -1.667156 -5.356903 14.60912 -16.53678 -0 11.36613 -0 3.147545 -20.24432 17.7093 -1.320157 -2.559626 3.893142 3.119084 9.133456 -9.001349 1.038153 19.65801 7.804093 3.881713 -26.25623 9.418037 4.470221 -18.01619 11.19183 88.91632 34.60371 -23.86442 -0 0 12.23353 -9.801121 10.0268 4.968749 7.906313 -23.16302 -1.654191 -89.38596 23.75128 16.76507 0 0 -25.89591 9.915001 13.92063 2.863032
